<svg aria-hidden="false" aria-label="Interactive chart" viewBox="0 0 600 400" height="400" width="600" xmlns="http://www.w3.org/2000/svg" style="font-family: Helvetica, Arial, sans-serif; font-size: 1rem;" class="highcharts-root" version="1.1" xmlns:xlink="http://www.w3.org/1999/xlink"><desc aria-hidden="true">Created with Highcharts 11.4.8</desc><defs aria-hidden="true"><filter id="highcharts-drop-shadow-3"><fedropshadow stdDeviation="2.5" flood-opacity="0.75" flood-color="#000000" dy="1" dx="1"></fedropshadow></filter><clipPath id="highcharts-kcmrij7-425-"><rect fill="none" height="171" width="520" y="0" x="0"></rect></clipPath></defs><rect aria-hidden="true" ry="0" rx="0" height="400" width="600" y="0" x="0" filter="none" class="highcharts-background" fill="#ffffff"></rect><rect aria-hidden="true" filter="none" height="171" width="520" y="47" x="70" class="highcharts-plot-background" fill="none"></rect><g aria-hidden="true" data-z-index="1" class="highcharts-grid highcharts-xaxis-grid"><path opacity="1" d="M 330.5 47 L 330.5 218" class="highcharts-grid-line" data-z-index="1" stroke-dasharray="none" stroke-width="0" stroke="#e6e6e6" fill="none"></path><path opacity="1" d="M 590.5 47 L 590.5 218" class="highcharts-grid-line" data-z-index="1" stroke-dasharray="none" stroke-width="0" stroke="#e6e6e6" fill="none"></path><path opacity="1" d="M 70.5 47 L 70.5 218" class="highcharts-grid-line" data-z-index="1" stroke-dasharray="none" stroke-width="0" stroke="#e6e6e6" fill="none"></path></g><g aria-hidden="true" data-z-index="1" class="highcharts-grid highcharts-yaxis-grid"><path opacity="1" d="M 70 218.5 L 590 218.5" class="highcharts-grid-line" data-z-index="1" stroke-dasharray="none" stroke-width="1" stroke="#e6e6e6" fill="none"></path><path opacity="1" d="M 70 161.5 L 590 161.5" class="highcharts-grid-line" data-z-index="1" stroke-dasharray="none" stroke-width="1" stroke="#e6e6e6" fill="none"></path><path opacity="1" d="M 70 104.5 L 590 104.5" class="highcharts-grid-line" data-z-index="1" stroke-dasharray="none" stroke-width="1" stroke="#e6e6e6" fill="none"></path><path opacity="1" d="M 70 47.5 L 590 47.5" class="highcharts-grid-line" data-z-index="1" stroke-dasharray="none" stroke-width="1" stroke="#e6e6e6" fill="none"></path></g><rect aria-hidden="true" height="171" width="520" y="47" x="70" stroke-width="0" stroke="#cccccc" data-z-index="1" class="highcharts-plot-border" fill="none"></rect><g aria-hidden="true" data-z-index="2" class="highcharts-axis highcharts-xaxis"><path d="M 70 218.5 L 590 218.5" data-z-index="7" stroke-width="1" stroke="#333333" class="highcharts-axis-line" fill="none"></path></g><g aria-hidden="true" data-z-index="2" class="highcharts-axis highcharts-yaxis"><text y="132.5" style="color: rgb(102, 102, 102); font-size: 0.8em; fill: rgb(102, 102, 102);" class="highcharts-axis-title" transform="translate(0,0) rotate(270 24.359375 132.5)" text-anchor="middle" data-z-index="7" x="24.359375">Values</text><path d="M 70 47 L 70 218" data-z-index="7" stroke-width="0" stroke="#333333" class="highcharts-axis-line" fill="none"></path></g><g aria-hidden="false" filter="none" data-z-index="3" class="highcharts-series-group"><g aria-label="Reference Questions, bar series 1 of 11 with 2 bars." style="outline: currentcolor;" tabindex="-1" role="region" aria-hidden="false" clip-path="url(#highcharts-kcmrij7-425-)" transform="translate(70,47) scale(1 1)" opacity="1" data-z-index="0.1" class="highcharts-series highcharts-series-0 highcharts-column-series highcharts-color-0"><path aria-label="Jul 2021 to Jun 2023, 6,088. Reference Questions." role="img" style="outline: currentcolor;" tabindex="-1" class="highcharts-point highcharts-color-0" filter="none" opacity="1" stroke-width="1" stroke="#ffffff" d="M 56.5 153.5 L 62.5 153.5 A 3 3 0 0 1 65.5 156.5 L 65.5 171.5 A 0 0 0 0 1 65.5 171.5 L 53.5 171.5 A 0 0 0 0 1 53.5 171.5 L 53.5 156.5 A 3 3 0 0 1 56.5 153.5 Z" fill="#003e51"></path><path aria-label="Jul 2022 to Jun 2024, 9,361. Reference Questions." role="img" style="outline: currentcolor;" tabindex="-1" class="highcharts-point highcharts-color-0" filter="none" opacity="1" stroke-width="1" stroke="#ffffff" d="M 316.5 144.5 L 322.5 144.5 A 3 3 0 0 1 325.5 147.5 L 325.5 171.5 A 0 0 0 0 1 325.5 171.5 L 313.5 171.5 A 0 0 0 0 1 313.5 171.5 L 313.5 147.5 A 3 3 0 0 1 316.5 144.5 Z" fill="#003e51"></path></g><g aria-hidden="true" clip-path="none" transform="translate(70,47) scale(1 1)" opacity="1" data-z-index="0.1" class="highcharts-markers highcharts-series-0 highcharts-column-series highcharts-color-0"></g><g aria-label="Workshops and Events, bar series 2 of 11 with 2 bars." style="outline: currentcolor;" tabindex="-1" role="region" aria-hidden="false" clip-path="url(#highcharts-kcmrij7-425-)" transform="translate(70,47) scale(1 1)" opacity="1" data-z-index="0.1" class="highcharts-series highcharts-series-1 highcharts-column-series highcharts-color-1"><path aria-label="Jul 2021 to Jun 2023, 82. Workshops and Events." role="img" style="outline: currentcolor;" tabindex="-1" class="highcharts-point highcharts-color-1" filter="none" opacity="1" stroke-width="1" stroke="#ffffff" d="M 70.5 170.5 L 76.5 170.5 A 3 3 0 0 1 78.73606797749979 171.5 L 78.73606797749979 171.5 A 0 0 0 0 1 78.73606797749979 171.5 L 78.73606797749979 171.5 A 0 0 0 0 1 68.26393202250021 171.5 L 68.26393202250021 171.5 A 3 3 0 0 1 70.5 170.5 Z" fill="#00b0b9"></path><path aria-label="Jul 2022 to Jun 2024, 114. Workshops and Events." role="img" style="outline: currentcolor;" tabindex="-1" class="highcharts-point highcharts-color-1" filter="none" opacity="1" stroke-width="1" stroke="#ffffff" d="M 330.5 170.5 L 336.5 170.5 A 3 3 0 0 1 338.7360679774998 171.5 L 338.7360679774998 171.5 A 0 0 0 0 1 338.7360679774998 171.5 L 338.7360679774998 171.5 A 0 0 0 0 1 328.2639320225002 171.5 L 328.2639320225002 171.5 A 3 3 0 0 1 330.5 170.5 Z" fill="#00b0b9"></path></g><g aria-hidden="true" clip-path="none" transform="translate(70,47) scale(1 1)" opacity="1" data-z-index="0.1" class="highcharts-markers highcharts-series-1 highcharts-column-series highcharts-color-1"></g><g aria-label="Event attendees, bar series 3 of 11 with 2 bars." style="outline: currentcolor;" tabindex="-1" role="region" aria-hidden="false" clip-path="url(#highcharts-kcmrij7-425-)" transform="translate(70,47) scale(1 1)" opacity="1" data-z-index="0.1" class="highcharts-series highcharts-series-2 highcharts-column-series highcharts-color-2"><path aria-label="Jul 2021 to Jun 2023, 1,192. Event attendees." role="img" style="outline: currentcolor;" tabindex="-1" class="highcharts-point highcharts-color-2" filter="none" opacity="1" stroke-width="1" stroke="#ffffff" d="M 84.5 167.5 L 90.5 167.5 A 3 3 0 0 1 93.5 170.5 L 93.5 171.5 A 0 0 0 0 1 93.5 171.5 L 81.5 171.5 A 0 0 0 0 1 81.5 171.5 L 81.5 170.5 A 3 3 0 0 1 84.5 167.5 Z" fill="#f00e70"></path><path aria-label="Jul 2022 to Jun 2024, 1,699. Event attendees." role="img" style="outline: currentcolor;" tabindex="-1" class="highcharts-point highcharts-color-2" filter="none" opacity="1" stroke-width="1" stroke="#ffffff" d="M 344.5 166.5 L 350.5 166.5 A 3 3 0 0 1 353.5 169.5 L 353.5 171.5 A 0 0 0 0 1 353.5 171.5 L 341.5 171.5 A 0 0 0 0 1 341.5 171.5 L 341.5 169.5 A 3 3 0 0 1 344.5 166.5 Z" fill="#f00e70"></path></g><g aria-hidden="true" clip-path="none" transform="translate(70,47) scale(1 1)" opacity="1" data-z-index="0.1" class="highcharts-markers highcharts-series-2 highcharts-column-series highcharts-color-2"></g><g aria-label="Monthly Gate Count total, bar series 4 of 11 with 2 bars." style="outline: currentcolor;" tabindex="-1" role="region" aria-hidden="false" clip-path="url(#highcharts-kcmrij7-425-)" transform="translate(70,47) scale(1 1)" opacity="1" data-z-index="0.1" class="highcharts-series highcharts-series-3 highcharts-column-series highcharts-color-3"><path aria-label="Jul 2021 to Jun 2023, 12,972. Monthly Gate Count total." role="img" style="outline: currentcolor;" tabindex="-1" class="highcharts-point highcharts-color-3" filter="none" opacity="1" stroke-width="1" stroke="#ffffff" d="M 98.5 134.5 L 104.5 134.5 A 3 3 0 0 1 107.5 137.5 L 107.5 171.5 A 0 0 0 0 1 107.5 171.5 L 95.5 171.5 A 0 0 0 0 1 95.5 171.5 L 95.5 137.5 A 3 3 0 0 1 98.5 134.5 Z" fill="#7da0ad"></path><path aria-label="Jul 2022 to Jun 2024, 28,023. Monthly Gate Count total." role="img" style="outline: currentcolor;" tabindex="-1" class="highcharts-point highcharts-color-3" filter="none" opacity="1" stroke-width="1" stroke="#ffffff" d="M 358.5 91.5 L 364.5 91.5 A 3 3 0 0 1 367.5 94.5 L 367.5 171.5 A 0 0 0 0 1 367.5 171.5 L 355.5 171.5 A 0 0 0 0 1 355.5 171.5 L 355.5 94.5 A 3 3 0 0 1 358.5 91.5 Z" fill="#7da0ad"></path></g><g aria-hidden="true" clip-path="none" transform="translate(70,47) scale(1 1)" opacity="1" data-z-index="0.1" class="highcharts-markers highcharts-series-3 highcharts-column-series highcharts-color-3"></g><g aria-label="Website Visitors, bar series 5 of 11 with 2 bars." style="outline: currentcolor;" tabindex="-1" role="region" aria-hidden="false" clip-path="url(#highcharts-kcmrij7-425-)" transform="translate(70,47) scale(1 1)" opacity="1" data-z-index="0.1" class="highcharts-series highcharts-series-4 highcharts-column-series highcharts-color-4"><path aria-label="Jul 2021 to Jun 2023, 8,458. Website Visitors." role="img" style="outline: currentcolor;" tabindex="-1" class="highcharts-point highcharts-color-4" filter="none" opacity="1" stroke-width="1" stroke="#ffffff" d="M 113.5 146.5 L 119.5 146.5 A 3 3 0 0 1 122.5 149.5 L 122.5 171.5 A 0 0 0 0 1 122.5 171.5 L 110.5 171.5 A 0 0 0 0 1 110.5 171.5 L 110.5 149.5 A 3 3 0 0 1 113.5 146.5 Z" fill="#ffcd00"></path><path aria-label="Jul 2022 to Jun 2024, 14,606. Website Visitors." role="img" style="outline: currentcolor;" tabindex="-1" class="highcharts-point highcharts-color-4" filter="none" opacity="1" stroke-width="1" stroke="#ffffff" d="M 373.5 129.5 L 379.5 129.5 A 3 3 0 0 1 382.5 132.5 L 382.5 171.5 A 0 0 0 0 1 382.5 171.5 L 370.5 171.5 A 0 0 0 0 1 370.5 171.5 L 370.5 132.5 A 3 3 0 0 1 373.5 129.5 Z" fill="#ffcd00"></path></g><g aria-hidden="true" clip-path="none" transform="translate(70,47) scale(1 1)" opacity="1" data-z-index="0.1" class="highcharts-markers highcharts-series-4 highcharts-column-series highcharts-color-4"></g><g aria-label="Total Visitors (In person and online), bar series 6 of 11 with 2 bars." style="outline: currentcolor;" tabindex="-1" role="region" aria-hidden="false" clip-path="url(#highcharts-kcmrij7-425-)" transform="translate(70,47) scale(1 1)" opacity="1" data-z-index="0.1" class="highcharts-series highcharts-series-5 highcharts-column-series highcharts-color-5"><path aria-label="Jul 2021 to Jun 2023, 21,430. Total Visitors (In person and online)." role="img" style="outline: currentcolor;" tabindex="-1" class="highcharts-point highcharts-color-5" filter="none" opacity="1" stroke-width="1" stroke="#ffffff" d="M 127.5 109.5 L 133.5 109.5 A 3 3 0 0 1 136.5 112.5 L 136.5 171.5 A 0 0 0 0 1 136.5 171.5 L 124.5 171.5 A 0 0 0 0 1 124.5 171.5 L 124.5 112.5 A 3 3 0 0 1 127.5 109.5 Z" fill="#c820e6"></path><path aria-label="Jul 2022 to Jun 2024, 42,629. Total Visitors (In person and online)." role="img" style="outline: currentcolor;" tabindex="-1" class="highcharts-point highcharts-color-5" filter="none" opacity="1" stroke-width="1" stroke="#ffffff" d="M 387.5 49.5 L 393.5 49.5 A 3 3 0 0 1 396.5 52.5 L 396.5 171.5 A 0 0 0 0 1 396.5 171.5 L 384.5 171.5 A 0 0 0 0 1 384.5 171.5 L 384.5 52.5 A 3 3 0 0 1 387.5 49.5 Z" fill="#c820e6"></path></g><g aria-hidden="true" clip-path="none" transform="translate(70,47) scale(1 1)" opacity="1" data-z-index="0.1" class="highcharts-markers highcharts-series-5 highcharts-column-series highcharts-color-5"></g><g aria-label="Monthly Circulation, bar series 7 of 11 with 2 bars." style="outline: currentcolor;" tabindex="-1" role="region" aria-hidden="false" clip-path="url(#highcharts-kcmrij7-425-)" transform="translate(70,47) scale(1 1)" opacity="1" data-z-index="0.1" class="highcharts-series highcharts-series-6 highcharts-column-series highcharts-color-6"><path aria-label="Jul 2021 to Jun 2023, 252. Monthly Circulation." role="img" style="outline: currentcolor;" tabindex="-1" class="highcharts-point highcharts-color-6" filter="none" opacity="1" stroke-width="1" stroke="#ffffff" d="M 141.5 170.5 L 147.5 170.5 A 3 3 0 0 1 149.7360679774998 171.5 L 149.7360679774998 171.5 A 0 0 0 0 1 149.7360679774998 171.5 L 149.7360679774998 171.5 A 0 0 0 0 1 139.2639320225002 171.5 L 139.2639320225002 171.5 A 3 3 0 0 1 141.5 170.5 Z" fill="#32e01b"></path><path aria-label="Jul 2022 to Jun 2024, 674. Monthly Circulation." role="img" style="outline: currentcolor;" tabindex="-1" class="highcharts-point highcharts-color-6" filter="none" opacity="1" stroke-width="1" stroke="#ffffff" d="M 401.5 169.5 L 407.5 169.5 A 3 3 0 0 1 410.3284271247462 171.5 L 410.3284271247462 171.5 A 0 0 0 0 1 410.3284271247462 171.5 L 410.3284271247462 171.5 A 0 0 0 0 1 398.6715728752538 171.5 L 398.6715728752538 171.5 A 3 3 0 0 1 401.5 169.5 Z" fill="#32e01b"></path></g><g aria-hidden="true" clip-path="none" transform="translate(70,47) scale(1 1)" opacity="1" data-z-index="0.1" class="highcharts-markers highcharts-series-6 highcharts-column-series highcharts-color-6"></g><g aria-label="Room reservations, bar series 8 of 11 with 2 bars." style="outline: currentcolor;" tabindex="-1" role="region" aria-hidden="false" clip-path="url(#highcharts-kcmrij7-425-)" transform="translate(70,47) scale(1 1)" opacity="1" data-z-index="0.1" class="highcharts-series highcharts-series-7 highcharts-column-series highcharts-color-7"><path aria-label="Jul 2021 to Jun 2023, 176. Room reservations." role="img" style="outline: currentcolor;" tabindex="-1" class="highcharts-point highcharts-color-7" filter="none" opacity="1" stroke-width="1" stroke="#ffffff" d="M 155.5 170.5 L 161.5 170.5 A 3 3 0 0 1 163.7360679774998 171.5 L 163.7360679774998 171.5 A 0 0 0 0 1 163.7360679774998 171.5 L 163.7360679774998 171.5 A 0 0 0 0 1 153.2639320225002 171.5 L 153.2639320225002 171.5 A 3 3 0 0 1 155.5 170.5 Z" fill="#eb6912"></path><path aria-label="Jul 2022 to Jun 2024, 340. Room reservations." role="img" style="outline: currentcolor;" tabindex="-1" class="highcharts-point highcharts-color-7" filter="none" opacity="1" stroke-width="1" stroke="#ffffff" d="M 415.5 170.5 L 421.5 170.5 A 3 3 0 0 1 423.7360679774998 171.5 L 423.7360679774998 171.5 A 0 0 0 0 1 423.7360679774998 171.5 L 423.7360679774998 171.5 A 0 0 0 0 1 413.2639320225002 171.5 L 413.2639320225002 171.5 A 3 3 0 0 1 415.5 170.5 Z" fill="#eb6912"></path></g><g aria-hidden="true" clip-path="none" transform="translate(70,47) scale(1 1)" opacity="1" data-z-index="0.1" class="highcharts-markers highcharts-series-7 highcharts-column-series highcharts-color-7"></g><g aria-label="3D Print time, bar series 9 of 11 with 2 bars." style="outline: currentcolor;" tabindex="-1" role="region" aria-hidden="false" clip-path="url(#highcharts-kcmrij7-425-)" transform="translate(70,47) scale(1 1)" opacity="1" data-z-index="0.1" class="highcharts-series highcharts-series-8 highcharts-column-series highcharts-color-8"><path aria-label="Jul 2021 to Jun 2023, 8,222.330000000002. 3D Print time." role="img" style="outline: currentcolor;" tabindex="-1" class="highcharts-point highcharts-color-8" filter="none" opacity="1" stroke-width="1" stroke="#ffffff" d="M 169.5 147.5 L 175.5 147.5 A 3 3 0 0 1 178.5 150.5 L 178.5 171.5 A 0 0 0 0 1 178.5 171.5 L 166.5 171.5 A 0 0 0 0 1 166.5 171.5 L 166.5 150.5 A 3 3 0 0 1 169.5 147.5 Z" fill="#ff0009"></path><path aria-label="Jul 2022 to Jun 2024, 11,996.710000000001. 3D Print time." role="img" style="outline: currentcolor;" tabindex="-1" class="highcharts-point highcharts-color-8" filter="none" opacity="1" stroke-width="1" stroke="#ffffff" d="M 429.5 136.5 L 435.5 136.5 A 3 3 0 0 1 438.5 139.5 L 438.5 171.5 A 0 0 0 0 1 438.5 171.5 L 426.5 171.5 A 0 0 0 0 1 426.5 171.5 L 426.5 139.5 A 3 3 0 0 1 429.5 136.5 Z" fill="#ff0009"></path></g><g aria-hidden="true" clip-path="none" transform="translate(70,47) scale(1 1)" opacity="1" data-z-index="0.1" class="highcharts-markers highcharts-series-8 highcharts-column-series highcharts-color-8"></g><g aria-label="Filament used, bar series 10 of 11 with 2 bars." style="outline: currentcolor;" tabindex="-1" role="region" aria-hidden="false" clip-path="url(#highcharts-kcmrij7-425-)" transform="translate(70,47) scale(1 1)" opacity="1" data-z-index="0.1" class="highcharts-series highcharts-series-9 highcharts-column-series highcharts-color-9"><path aria-label="Jul 2021 to Jun 2023, 6,869.17. Filament used." role="img" style="outline: currentcolor;" tabindex="-1" class="highcharts-point highcharts-color-9" filter="none" opacity="1" stroke-width="1" stroke="#ffffff" d="M 184.5 151.5 L 190.5 151.5 A 3 3 0 0 1 193.5 154.5 L 193.5 171.5 A 0 0 0 0 1 193.5 171.5 L 181.5 171.5 A 0 0 0 0 1 181.5 171.5 L 181.5 154.5 A 3 3 0 0 1 184.5 151.5 Z" fill="#7cb5ec"></path><path aria-label="Jul 2022 to Jun 2024, 9,682.029999999999. Filament used." role="img" style="outline: currentcolor;" tabindex="-1" class="highcharts-point highcharts-color-9" filter="none" opacity="1" stroke-width="1" stroke="#ffffff" d="M 444.5 143.5 L 450.5 143.5 A 3 3 0 0 1 453.5 146.5 L 453.5 171.5 A 0 0 0 0 1 453.5 171.5 L 441.5 171.5 A 0 0 0 0 1 441.5 171.5 L 441.5 146.5 A 3 3 0 0 1 444.5 143.5 Z" fill="#7cb5ec"></path></g><g aria-hidden="true" clip-path="none" transform="translate(70,47) scale(1 1)" opacity="1" data-z-index="0.1" class="highcharts-markers highcharts-series-9 highcharts-column-series highcharts-color-9"></g><g aria-label="Social Media Followers, bar series 11 of 11 with 2 bars." style="outline: currentcolor;" tabindex="-1" role="region" aria-hidden="false" clip-path="url(#highcharts-kcmrij7-425-)" transform="translate(70,47) scale(1 1)" opacity="1" data-z-index="0.1" class="highcharts-series highcharts-series-10 highcharts-column-series highcharts-color-10"><path aria-label="Jul 2021 to Jun 2023, 5,071. Social Media Followers." role="img" style="outline: currentcolor;" tabindex="-1" class="highcharts-point highcharts-color-10" filter="none" opacity="1" stroke-width="1" stroke="#ffffff" d="M 198.5 156.5 L 204.5 156.5 A 3 3 0 0 1 207.5 159.5 L 207.5 171.5 A 0 0 0 0 1 207.5 171.5 L 195.5 171.5 A 0 0 0 0 1 195.5 171.5 L 195.5 159.5 A 3 3 0 0 1 198.5 156.5 Z" fill="#1a730a"></path><path aria-label="Jul 2022 to Jun 2024, 15,723. Social Media Followers." role="img" style="outline: currentcolor;" tabindex="-1" class="highcharts-point highcharts-color-10" filter="none" opacity="1" stroke-width="1" stroke="#ffffff" d="M 458.5 126.5 L 464.5 126.5 A 3 3 0 0 1 467.5 129.5 L 467.5 171.5 A 0 0 0 0 1 467.5 171.5 L 455.5 171.5 A 0 0 0 0 1 455.5 171.5 L 455.5 129.5 A 3 3 0 0 1 458.5 126.5 Z" fill="#1a730a"></path></g><g aria-hidden="true" clip-path="none" transform="translate(70,47) scale(1 1)" opacity="1" data-z-index="0.1" class="highcharts-markers highcharts-series-10 highcharts-column-series highcharts-color-10"></g></g><text aria-hidden="true" y="25" style="font-size: 1.2em; color: rgb(51, 51, 51); font-weight: bold; fill: rgb(51, 51, 51);" data-z-index="4" class="highcharts-title" text-anchor="middle" x="300">Makerspace Stats Trends</text><text aria-hidden="true" y="46" style="color: rgb(102, 102, 102); font-size: 0.8em; fill: rgb(102, 102, 102);" data-z-index="4" class="highcharts-subtitle" text-anchor="middle" x="300"></text><text aria-hidden="true" y="397" style="color: rgb(102, 102, 102); font-size: 0.8em; fill: rgb(102, 102, 102);" data-z-index="4" class="highcharts-caption" text-anchor="start" x="10"></text><g aria-hidden="true" transform="translate(70,47) scale(1 1)" opacity="1" data-z-index="6" class="highcharts-data-labels highcharts-series-0 highcharts-column-series highcharts-color-0"><g transform="translate(39,129)" filter="none" data-z-index="1" class="highcharts-label highcharts-data-label highcharts-data-label-color-0"><text style="color: rgb(0, 0, 0); font-size: 0.7em; font-weight: bold; fill: rgb(0, 0, 0);" y="17" data-z-index="1" x="5"><tspan style="" stroke-linejoin="round" stroke-width="2px" stroke="#FFFFFF" fill="#FFFFFF" class="highcharts-text-outline">6,088<tspan dy="0" x="5">​</tspan></tspan>6,088</text></g><g transform="translate(299,120)" filter="none" data-z-index="1" class="highcharts-label highcharts-data-label highcharts-data-label-color-0"><text style="color: rgb(0, 0, 0); font-size: 0.7em; font-weight: bold; fill: rgb(0, 0, 0);" y="17" data-z-index="1" x="5"><tspan stroke-linejoin="round" stroke-width="2px" stroke="#FFFFFF" fill="#FFFFFF" class="highcharts-text-outline">9,361<tspan dy="0" x="5">​</tspan></tspan>9,361</text></g></g><g aria-hidden="true" transform="translate(70,47) scale(1 1)" opacity="1" data-z-index="6" class="highcharts-data-labels highcharts-series-1 highcharts-column-series highcharts-color-1"><g transform="translate(62,146)" filter="none" data-z-index="1" class="highcharts-label highcharts-data-label highcharts-data-label-color-1"><text style="color: rgb(0, 0, 0); font-size: 0.7em; font-weight: bold; fill: rgb(0, 0, 0);" y="17" data-z-index="1" x="5"><tspan style="" stroke-linejoin="round" stroke-width="2px" stroke="#FFFFFF" fill="#FFFFFF" class="highcharts-text-outline">82<tspan dy="0" x="5">​</tspan></tspan>82</text></g><g style="pointer-events: none;" opacity="0" transform="translate(318,146)" filter="none" data-z-index="1" class="highcharts-label highcharts-data-label highcharts-data-label-color-1 highcharts-data-label-hidden"><text style="color: rgb(0, 0, 0); font-size: 0.7em; font-weight: bold; fill: rgb(0, 0, 0);" y="17" data-z-index="1" x="5"><tspan style="" stroke-linejoin="round" stroke-width="2px" stroke="#FFFFFF" fill="#FFFFFF" class="highcharts-text-outline">114<tspan dy="0" x="5">​</tspan></tspan>114</text></g></g><g aria-hidden="true" transform="translate(70,47) scale(1 1)" opacity="1" data-z-index="6" class="highcharts-data-labels highcharts-series-2 highcharts-column-series highcharts-color-2"><g style="pointer-events: none;" opacity="0" transform="translate(67,143)" filter="none" data-z-index="1" class="highcharts-label highcharts-data-label highcharts-data-label-color-2 highcharts-data-label-hidden"><text style="color: rgb(0, 0, 0); font-size: 0.7em; font-weight: bold; fill: rgb(0, 0, 0);" y="17" data-z-index="1" x="5"><tspan stroke-linejoin="round" stroke-width="2px" stroke="#FFFFFF" fill="#FFFFFF" class="highcharts-text-outline">1,192<tspan dy="0" x="5">​</tspan></tspan>1,192</text></g><g transform="translate(327,142)" filter="none" data-z-index="1" class="highcharts-label highcharts-data-label highcharts-data-label-color-2"><text style="color: rgb(0, 0, 0); font-size: 0.7em; font-weight: bold; fill: rgb(0, 0, 0);" y="17" data-z-index="1" x="5"><tspan stroke-linejoin="round" stroke-width="2px" stroke="#FFFFFF" fill="#FFFFFF" class="highcharts-text-outline">1,699<tspan dy="0" x="5">​</tspan></tspan>1,699</text></g></g><g aria-hidden="true" transform="translate(70,47) scale(1 1)" opacity="1" data-z-index="6" class="highcharts-data-labels highcharts-series-3 highcharts-column-series highcharts-color-3"><g transform="translate(78,110)" filter="none" data-z-index="1" class="highcharts-label highcharts-data-label highcharts-data-label-color-3"><text style="color: rgb(0, 0, 0); font-size: 0.7em; font-weight: bold; fill: rgb(0, 0, 0);" y="17" data-z-index="1" x="5"><tspan style="" stroke-linejoin="round" stroke-width="2px" stroke="#FFFFFF" fill="#FFFFFF" class="highcharts-text-outline">12,972<tspan dy="0" x="5">​</tspan></tspan>12,972</text></g><g transform="translate(338,67)" filter="none" data-z-index="1" class="highcharts-label highcharts-data-label highcharts-data-label-color-3"><text style="color: rgb(0, 0, 0); font-size: 0.7em; font-weight: bold; fill: rgb(0, 0, 0);" y="17" data-z-index="1" x="5"><tspan stroke-linejoin="round" stroke-width="2px" stroke="#FFFFFF" fill="#FFFFFF" class="highcharts-text-outline">28,023<tspan dy="0" x="5">​</tspan></tspan>28,023</text></g></g><g aria-hidden="true" transform="translate(70,47) scale(1 1)" opacity="1" data-z-index="6" class="highcharts-data-labels highcharts-series-4 highcharts-column-series highcharts-color-4"><g style="pointer-events: none;" opacity="0" transform="translate(96,122)" filter="none" data-z-index="1" class="highcharts-label highcharts-data-label highcharts-data-label-color-4 highcharts-data-label-hidden"><text style="color: rgb(0, 0, 0); font-size: 0.7em; font-weight: bold; fill: rgb(0, 0, 0);" y="17" data-z-index="1" x="5"><tspan stroke-linejoin="round" stroke-width="2px" stroke="#FFFFFF" fill="#FFFFFF" class="highcharts-text-outline">8,458<tspan dy="0" x="5">​</tspan></tspan>8,458</text></g><g transform="translate(353,105)" filter="none" data-z-index="1" class="highcharts-label highcharts-data-label highcharts-data-label-color-4"><text style="color: rgb(0, 0, 0); font-size: 0.7em; font-weight: bold; fill: rgb(0, 0, 0);" y="17" data-z-index="1" x="5"><tspan stroke-linejoin="round" stroke-width="2px" stroke="#FFFFFF" fill="#FFFFFF" class="highcharts-text-outline">14,606<tspan dy="0" x="5">​</tspan></tspan>14,606</text></g></g><g aria-hidden="true" transform="translate(70,47) scale(1 1)" opacity="1" data-z-index="6" class="highcharts-data-labels highcharts-series-5 highcharts-column-series highcharts-color-5"><g transform="translate(107,85)" filter="none" data-z-index="1" class="highcharts-label highcharts-data-label highcharts-data-label-color-5"><text style="color: rgb(0, 0, 0); font-size: 0.7em; font-weight: bold; fill: rgb(0, 0, 0);" y="17" data-z-index="1" x="5"><tspan stroke-linejoin="round" stroke-width="2px" stroke="#FFFFFF" fill="#FFFFFF" class="highcharts-text-outline">21,430<tspan dy="0" x="5">​</tspan></tspan>21,430</text></g><g transform="translate(367,25)" filter="none" data-z-index="1" class="highcharts-label highcharts-data-label highcharts-data-label-color-5"><text style="color: rgb(0, 0, 0); font-size: 0.7em; font-weight: bold; fill: rgb(0, 0, 0);" y="17" data-z-index="1" x="5"><tspan stroke-linejoin="round" stroke-width="2px" stroke="#FFFFFF" fill="#FFFFFF" class="highcharts-text-outline">42,629<tspan dy="0" x="5">​</tspan></tspan>42,629</text></g></g><g aria-hidden="true" transform="translate(70,47) scale(1 1)" opacity="1" data-z-index="6" class="highcharts-data-labels highcharts-series-6 highcharts-column-series highcharts-color-6"><g transform="translate(129,146)" filter="none" data-z-index="1" class="highcharts-label highcharts-data-label highcharts-data-label-color-6"><text style="color: rgb(0, 0, 0); font-size: 0.7em; font-weight: bold; fill: rgb(0, 0, 0);" y="17" data-z-index="1" x="5"><tspan stroke-linejoin="round" stroke-width="2px" stroke="#FFFFFF" fill="#FFFFFF" class="highcharts-text-outline">252<tspan dy="0" x="5">​</tspan></tspan>252</text></g><g transform="translate(389,145)" filter="none" data-z-index="1" class="highcharts-label highcharts-data-label highcharts-data-label-color-6"><text style="color: rgb(0, 0, 0); font-size: 0.7em; font-weight: bold; fill: rgb(0, 0, 0);" y="17" data-z-index="1" x="5"><tspan stroke-linejoin="round" stroke-width="2px" stroke="#FFFFFF" fill="#FFFFFF" class="highcharts-text-outline">674<tspan dy="0" x="5">​</tspan></tspan>674</text></g></g><g aria-hidden="true" transform="translate(70,47) scale(1 1)" opacity="1" data-z-index="6" class="highcharts-data-labels highcharts-series-7 highcharts-column-series highcharts-color-7"><g style="pointer-events: none;" opacity="0" transform="translate(143,146)" filter="none" data-z-index="1" class="highcharts-label highcharts-data-label highcharts-data-label-color-7 highcharts-data-label-hidden"><text style="color: rgb(0, 0, 0); font-size: 0.7em; font-weight: bold; fill: rgb(0, 0, 0);" y="17" data-z-index="1" x="5"><tspan stroke-linejoin="round" stroke-width="2px" stroke="#FFFFFF" fill="#FFFFFF" class="highcharts-text-outline">176<tspan dy="0" x="5">​</tspan></tspan>176</text></g><g style="pointer-events: none;" opacity="0" transform="translate(403,146)" filter="none" data-z-index="1" class="highcharts-label highcharts-data-label highcharts-data-label-color-7 highcharts-data-label-hidden"><text style="color: rgb(0, 0, 0); font-size: 0.7em; font-weight: bold; fill: rgb(0, 0, 0);" y="17" data-z-index="1" x="5"><tspan stroke-linejoin="round" stroke-width="2px" stroke="#FFFFFF" fill="#FFFFFF" class="highcharts-text-outline">340<tspan dy="0" x="5">​</tspan></tspan>340</text></g></g><g aria-hidden="true" transform="translate(70,47) scale(1 1)" opacity="1" data-z-index="6" class="highcharts-data-labels highcharts-series-8 highcharts-column-series highcharts-color-8"><g transform="translate(144,123)" filter="none" data-z-index="1" class="highcharts-label highcharts-data-label highcharts-data-label-color-8"><text style="color: rgb(0, 0, 0); font-size: 0.7em; font-weight: bold; fill: rgb(0, 0, 0);" y="17" data-z-index="1" x="5"><tspan style="" stroke-linejoin="round" stroke-width="2px" stroke="#FFFFFF" fill="#FFFFFF" class="highcharts-text-outline">8,222.33<tspan dy="0" x="5">​</tspan></tspan>8,222.33</text></g><g style="pointer-events: none;" opacity="0" transform="translate(401,112)" filter="none" data-z-index="1" class="highcharts-label highcharts-data-label highcharts-data-label-color-8 highcharts-data-label-hidden"><text style="color: rgb(0, 0, 0); font-size: 0.7em; font-weight: bold; fill: rgb(0, 0, 0);" y="17" data-z-index="1" x="5"><tspan style="" stroke-linejoin="round" stroke-width="2px" stroke="#FFFFFF" fill="#FFFFFF" class="highcharts-text-outline">11,996.71<tspan dy="0" x="5">​</tspan></tspan>11,996.71</text></g></g><g aria-hidden="true" transform="translate(70,47) scale(1 1)" opacity="1" data-z-index="6" class="highcharts-data-labels highcharts-series-9 highcharts-column-series highcharts-color-9"><g style="pointer-events: none;" opacity="0" transform="translate(159,127)" filter="none" data-z-index="1" class="highcharts-label highcharts-data-label highcharts-data-label-color-9 highcharts-data-label-hidden"><text style="color: rgb(0, 0, 0); font-size: 0.7em; font-weight: bold; fill: rgb(0, 0, 0);" y="17" data-z-index="1" x="5"><tspan stroke-linejoin="round" stroke-width="2px" stroke="#FFFFFF" fill="#FFFFFF" class="highcharts-text-outline">6,869.17<tspan dy="0" x="5">​</tspan></tspan>6,869.17</text></g><g transform="translate(419,119)" filter="none" data-z-index="1" class="highcharts-label highcharts-data-label highcharts-data-label-color-9"><text style="color: rgb(0, 0, 0); font-size: 0.7em; font-weight: bold; fill: rgb(0, 0, 0);" y="17" data-z-index="1" x="5"><tspan stroke-linejoin="round" stroke-width="2px" stroke="#FFFFFF" fill="#FFFFFF" class="highcharts-text-outline">9,682.03<tspan dy="0" x="5">​</tspan></tspan>9,682.03</text></g></g><g aria-hidden="true" transform="translate(70,47) scale(1 1)" opacity="1" data-z-index="6" class="highcharts-data-labels highcharts-series-10 highcharts-column-series highcharts-color-10"><g style="pointer-events: none;" opacity="0" transform="translate(181,132)" filter="none" data-z-index="1" class="highcharts-label highcharts-data-label highcharts-data-label-color-10 highcharts-data-label-hidden"><text style="color: rgb(0, 0, 0); font-size: 0.7em; font-weight: bold; fill: rgb(0, 0, 0);" y="17" data-z-index="1" x="5"><tspan stroke-linejoin="round" stroke-width="2px" stroke="#FFFFFF" fill="#FFFFFF" class="highcharts-text-outline">5,071<tspan dy="0" x="5">​</tspan></tspan>5,071</text></g><g transform="translate(438,102)" filter="none" data-z-index="1" class="highcharts-label highcharts-data-label highcharts-data-label-color-10"><text style="color: rgb(0, 0, 0); font-size: 0.7em; font-weight: bold; fill: rgb(0, 0, 0);" y="17" data-z-index="1" x="5"><tspan stroke-linejoin="round" stroke-width="2px" stroke="#FFFFFF" fill="#FFFFFF" class="highcharts-text-outline">15,723<tspan dy="0" x="5">​</tspan></tspan>15,723</text></g></g><g aria-hidden="true" transform="translate(59,260)" data-z-index="7" class="highcharts-legend highcharts-no-tooltip"><rect height="125" width="482" y="0" x="0" filter="none" stroke-width="0" stroke="#999999" ry="0" rx="0" class="highcharts-legend-box" fill="none"></rect><g data-z-index="1"><g><g transform="translate(8,3)" data-z-index="1" class="highcharts-legend-item highcharts-column-series highcharts-color-0 highcharts-series-0"><text y="17" data-z-index="2" text-anchor="start" style="color: rgb(51, 51, 51); cursor: pointer; font-size: 0.8em; text-decoration: none; fill: rgb(51, 51, 51);" x="21">Reference Questions</text><rect data-z-index="3" class="highcharts-point" fill="#003e51" height="12" width="12" ry="6" rx="6" y="6" x="2"></rect></g><g transform="translate(251.0625,3)" data-z-index="1" class="highcharts-legend-item highcharts-column-series highcharts-color-1 highcharts-series-1"><text data-z-index="2" text-anchor="start" style="color: rgb(51, 51, 51); cursor: pointer; font-size: 0.8em; text-decoration: none; fill: rgb(51, 51, 51);" y="17" x="21">Workshops and Events</text><rect data-z-index="3" class="highcharts-point" fill="#00b0b9" height="12" width="12" ry="6" rx="6" y="6" x="2"></rect></g><g transform="translate(8,22)" data-z-index="1" class="highcharts-legend-item highcharts-column-series highcharts-color-2 highcharts-series-2"><text data-z-index="2" text-anchor="start" style="color: rgb(51, 51, 51); cursor: pointer; font-size: 0.8em; text-decoration: none; fill: rgb(51, 51, 51);" y="17" x="21">Event attendees</text><rect data-z-index="3" class="highcharts-point" fill="#f00e70" height="12" width="12" ry="6" rx="6" y="6" x="2"></rect></g><g transform="translate(251.0625,22)" data-z-index="1" class="highcharts-legend-item highcharts-column-series highcharts-color-3 highcharts-series-3"><text data-z-index="2" text-anchor="start" style="color: rgb(51, 51, 51); cursor: pointer; font-size: 0.8em; text-decoration: none; fill: rgb(51, 51, 51);" y="17" x="21">Monthly Gate Count total</text><rect data-z-index="3" class="highcharts-point" fill="#7da0ad" height="12" width="12" ry="6" rx="6" y="6" x="2"></rect></g><g transform="translate(8,41)" data-z-index="1" class="highcharts-legend-item highcharts-column-series highcharts-color-4 highcharts-series-4"><text data-z-index="2" text-anchor="start" style="color: rgb(51, 51, 51); cursor: pointer; font-size: 0.8em; text-decoration: none; fill: rgb(51, 51, 51);" y="17" x="21">Website Visitors</text><rect data-z-index="3" class="highcharts-point" fill="#ffcd00" height="12" width="12" ry="6" rx="6" y="6" x="2"></rect></g><g transform="translate(251.0625,41)" data-z-index="1" class="highcharts-legend-item highcharts-column-series highcharts-color-5 highcharts-series-5"><text data-z-index="2" text-anchor="start" style="color: rgb(51, 51, 51); cursor: pointer; font-size: 0.8em; text-decoration: none; fill: rgb(51, 51, 51);" y="17" x="21">Total Visitors (In person and online)</text><rect data-z-index="3" class="highcharts-point" fill="#c820e6" height="12" width="12" ry="6" rx="6" y="6" x="2"></rect></g><g transform="translate(8,60)" data-z-index="1" class="highcharts-legend-item highcharts-column-series highcharts-color-6 highcharts-series-6"><text data-z-index="2" text-anchor="start" style="color: rgb(51, 51, 51); cursor: pointer; font-size: 0.8em; text-decoration: none; fill: rgb(51, 51, 51);" y="17" x="21">Monthly Circulation</text><rect data-z-index="3" class="highcharts-point" fill="#32e01b" height="12" width="12" ry="6" rx="6" y="6" x="2"></rect></g><g transform="translate(251.0625,60)" data-z-index="1" class="highcharts-legend-item highcharts-column-series highcharts-color-7 highcharts-series-7"><text data-z-index="2" text-anchor="start" style="color: rgb(51, 51, 51); cursor: pointer; font-size: 0.8em; text-decoration: none; fill: rgb(51, 51, 51);" y="17" x="21">Room reservations</text><rect data-z-index="3" class="highcharts-point" fill="#eb6912" height="12" width="12" ry="6" rx="6" y="6" x="2"></rect></g><g transform="translate(8,79)" data-z-index="1" class="highcharts-legend-item highcharts-column-series highcharts-color-8 highcharts-series-8"><text data-z-index="2" text-anchor="start" style="color: rgb(51, 51, 51); cursor: pointer; font-size: 0.8em; text-decoration: none; fill: rgb(51, 51, 51);" y="17" x="21">3D Print time</text><rect data-z-index="3" class="highcharts-point" fill="#ff0009" height="12" width="12" ry="6" rx="6" y="6" x="2"></rect></g><g transform="translate(251.0625,79)" data-z-index="1" class="highcharts-legend-item highcharts-column-series highcharts-color-9 highcharts-series-9"><text data-z-index="2" text-anchor="start" style="color: rgb(51, 51, 51); cursor: pointer; font-size: 0.8em; text-decoration: none; fill: rgb(51, 51, 51);" y="17" x="21">Filament used</text><rect data-z-index="3" class="highcharts-point" fill="#7cb5ec" height="12" width="12" ry="6" rx="6" y="6" x="2"></rect></g><g transform="translate(8,98)" data-z-index="1" class="highcharts-legend-item highcharts-column-series highcharts-color-10 highcharts-series-10"><text data-z-index="2" text-anchor="start" style="color: rgb(51, 51, 51); cursor: pointer; font-size: 0.8em; text-decoration: none; fill: rgb(51, 51, 51);" y="17" x="21">Social Media Followers</text><rect data-z-index="3" class="highcharts-point" fill="#1a730a" height="12" width="12" ry="6" rx="6" y="6" x="2"></rect></g></g></g></g><g aria-hidden="true" data-z-index="7" class="highcharts-axis-labels highcharts-xaxis-labels"><text opacity="1" y="245" transform="translate(0,0)" text-anchor="middle" style="color: rgb(51, 51, 51); cursor: default; font-size: 0.8em; fill: rgb(51, 51, 51);" x="200">Jul 2021 to Jun 2023</text><text opacity="1" y="245" transform="translate(0,0)" text-anchor="middle" style="color: rgb(51, 51, 51); cursor: default; font-size: 0.8em; fill: rgb(51, 51, 51);" x="460">Jul 2022 to Jun 2024</text></g><g aria-hidden="true" data-z-index="7" class="highcharts-axis-labels highcharts-yaxis-labels"><text opacity="1" y="223" transform="translate(0,0)" text-anchor="end" style="color: rgb(51, 51, 51); cursor: default; font-size: 0.8em; fill: rgb(51, 51, 51);" x="55">0</text><text opacity="1" y="166" transform="translate(0,0)" text-anchor="end" style="color: rgb(51, 51, 51); cursor: default; font-size: 0.8em; fill: rgb(51, 51, 51);" x="55">20k</text><text opacity="1" y="109" transform="translate(0,0)" text-anchor="end" style="color: rgb(51, 51, 51); cursor: default; font-size: 0.8em; fill: rgb(51, 51, 51);" x="55">40k</text><text opacity="1" y="52" transform="translate(0,0)" text-anchor="end" style="color: rgb(51, 51, 51); cursor: default; font-size: 0.8em; fill: rgb(51, 51, 51);" x="55">60k</text></g></svg>